<svg id="Layer_2" data-name="Layer 2" xmlns="http://www.w3.org/2000/svg" xmlns:xlink="http://www.w3.org/1999/xlink" viewBox="0 0 400 300" width="406" height="306" class="illustration"><defs><linearGradient id="linear-gradient" x1="157.03" y1="260.06" x2="177.51" y2="198.6" gradientUnits="userSpaceOnUse"><stop offset="0" stop-color="#ffc49e"></stop><stop offset="1" stop-color="#f15a24"></stop></linearGradient><linearGradient id="linear-gradient-2" x1="129.81" y1="261.38" x2="149.33" y2="202.83" xlink:href="#linear-gradient"></linearGradient><linearGradient id="linear-gradient-3" x1="238.03" y1="254.99" x2="256.54" y2="199.46" xlink:href="#linear-gradient"></linearGradient></defs><title>PP</title><path d="M194.28,289.5,14.56,183.29c-5.72-3.21-10.63-8.49-5.05-11.94l180.37-104c2.71-1.68,6.82-2.78,9.57-1.18L388.11,175.7c5.72,3.32,6.75,12.6,1,15.93L218,289.34A23.9,23.9,0,0,1,194.28,289.5Z" fill="#ffc2a4"></path><path d="M144.12,257.09c20.92-10.67,52.16-26.13,65.25-33.4l-17-8L122.13,244.1C129.23,248.79,136.71,252.89,144.12,257.09Z" opacity="0.32" fill="url(#linear-gradient)"></path><path d="M122.13,244.1c19.78-8.53,39.94-15.12,49.26-20.29l-15-7.1-47.06,19.06C115.44,240,115.86,240,122.13,244.1Z" opacity="0.32" fill="url(#linear-gradient-2)"></path><path d="M202.71,77.72l.87-5.41s.06-7.1,1-7,1.35,1.69,1.27,3.38,0,9,0,9" fill="#e56461"></path><path d="M204.69,84.46s4.95-3.13,5.41-6.74-4.48-6.21-4.48-6.21l-1.35,4.9" fill="#e56461"></path><path d="M200.07,82.67s1-4.91,1-5.28,1.36-4.55,2.73-4.64,4.27.09,4.64.91-2,1.59-3.55,1.61c0,0,2.46,2.75,1.55,6a9.74,9.74,0,0,1-4,5.12" fill="#f67770"></path><path d="M200,209.34a4.19,4.19,0,0,0,1.39,3.26c1.51,1.18,7.11,4.73,7.72,5.6s1.68,3.33.71,4.4-3.13,1.52-6,1a47.79,47.79,0,0,1-11.31-4.77c-1.39-1.09-2.34-14.52-2.34-14.52s6.61-2.79,9.19-1.48Z" fill="#42210b"></path><path d="M163.19,214.38a4.19,4.19,0,0,0,.18,3.54c1,1.63,5,6.9,5.31,7.93s.43,3.71-.86,4.37-3.46.34-5.92-1.16a47.79,47.79,0,0,1-9-8.39c-.93-1.51,2.84-14.43,2.84-14.43s7.16-.33,9.13,1.8Z" fill="#42210b"></path><path d="M185.82,119.91s1.75,4.45,6.24,18.49c5.87,18.34,9.69,66.53,9.69,66.53s-2.53,2.5-11.52,1.12l-13.31-65.29h0c-1.16,2-12.79,73.07-12.79,73.07s-3.22,2.79-15-1.77c0,0,3.63-74.94,10.69-92.16" fill="#e6e6e6"></path><path d="M163.14,123.75c2.07-.08,7.83,1.37,11.76,1.08a43.22,43.22,0,0,0,11.16-2c.15-.69.28-1.42.38-2.22,2.61-20.14,1.91-34.27,0-37.46s-13.36-5.72-18.57-4.27-13.05,7.52-13.05,7.52,2.15,17.09,6,29.24C161.9,119.07,161.9,119.07,163.14,123.75Z" fill="#42210b"></path><path d="M176.21,80.82c1.84.39,2.18-4.7,1.4-5.17s-9.39-.52-10.72.07c-2.91,1.29,0,5.6,0,5.6" fill="#42210b"></path><path d="M165.16,59.54c1.66-.29,1.61-3.05,4.68-4.32s6.71.55,8.07,1.53,2.34-1,3.81.51.54,3.86,1.4,4.69l.12.1a4.29,4.29,0,0,1,.12,4.17A12.59,12.59,0,0,1,181,68.61l-13.82,7.21c-1.66-1.18-4.87-12.28-4.68-13.66A2.92,2.92,0,0,1,165.16,59.54Z" fill="#200904"></path><path d="M180.33,63.77c.63.68-1.44,14-5.5,14.48s-8.84-4.88-9.26-6.48S165.4,61.64,167,60.83,176.53,59.68,180.33,63.77Z" fill="#f67770"></path><path d="M178.44,59.92s.8,3.1-4.05,3.68-5.18,1.67-5.75,3.37c-1.08,3.19-4.48,6.91-5.65-2.68-.06-.46,3.43-7,7.19-7.54S178.44,59.92,178.44,59.92Z" fill="#200904"></path><path d="M168.21,68.67s-1.52-2.62-2.7-1.37-.33,4.17,1.27,5.09" fill="#f67770"></path><path d="M186.47,83.18a65.73,65.73,0,0,1,5.75,13.13s6.34-15.22,7.57-15,5.46,2.85,5.81,4.62-6.28,25.19-14.41,27.3-12.71-16-12.71-16" fill="#42210b"></path><path d="M226.88,263.45c15-8.07,53.79-31.8,68.66-40.05l-40-6.69-58.63,20.73C212.58,245.63,205.2,250,226.88,263.45Z" opacity="0.32" fill="url(#linear-gradient-3)"></path><path d="M262.87,212.82a6.35,6.35,0,0,1-1.92-.29l-.29,1.35,31.21.56v-1.62Z" fill="#ba4d02"></path><path d="M260.94,212.58l-.28,1.3,17.23,6.93v-1.68C272.08,217.17,266.48,214.91,260.94,212.58Z" fill="#ba4d02"></path><path d="M277.13,118.94h-.21a1.76,1.76,0,0,0-1.9,1.41L255.83,223.43a1.74,1.74,0,0,0,1.08,1.94l.38.15a1.74,1.74,0,0,0,2.33-1.3L278.82,121Z" fill="#ba4d02"></path><path d="M295.77,223.88,283.06,120.2a1.57,1.57,0,0,0-1.53-1.37l-.8,0h0a1.56,1.56,0,0,0-1.52,1.75l12.74,103.91a1.55,1.55,0,0,0,1.93,1.32l.75-.18A1.55,1.55,0,0,0,295.77,223.88Z" fill="#ba4d02"></path><path d="M277.83,233.57a1.93,1.93,0,0,0,2.19-1.89l1.28-112.85-.58,0c-.8,0-1.6,0-2.38.11a8.49,8.49,0,0,1-.94,0l-1.28,112.67a1.94,1.94,0,0,0,1.67,1.94Z" fill="#ba4d02"></path><path d="M266.31,105.78c-2.26-.06-7-5.74-8.47-7.44a39.06,39.06,0,0,1-6.4-9.62c-9.14-19.79,3.1-46.35,25.89-47.92a42.19,42.19,0,0,1,4.85,0c15,.69,26.36,15.6,27.74,29.67a41.68,41.68,0,0,1-3.61,20.71,31.33,31.33,0,0,1-5.67,8.37c-1.62,1.72-6.49,7-9,6.92Z" fill="#68e1fd"></path><path d="M273.54,107.26l-2.9-39.55s-5.32-9.71-9-2.84,4,11.36,19.75,10.69,18.6-8.11,15.17-11-9.16,1.1-9.44,3.12-3.55,39.55-3.55,39.55" fill="none" stroke="#f2f2f2" stroke-miterlimit="10" stroke-width="2"></path><rect x="259.97" y="105.15" width="38.56" height="9.09" rx="4.55" ry="4.55" fill="#ccc"></rect><rect x="259.97" y="114.25" width="38.56" height="9.09" rx="4.55" ry="4.55" fill="#ccc"></rect><path d="M268.51,114.16a6,6,0,0,1-2.74-3.48,6.9,6.9,0,0,1,.79-5.53h-2a4.55,4.55,0,0,0,0,9.09h3.86Z" fill="#b5b4b4"></path><path d="M265.58,119.7a5.6,5.6,0,0,1,2.8-5.45h-3.86a4.55,4.55,0,0,0,0,9.09h2.85A5.43,5.43,0,0,1,265.58,119.7Z" fill="#b5b4b4"></path><path d="M269.95,33.69l-4-4A3.5,3.5,0,1,0,261,34.61l3.62,3.62.41.41a3.5,3.5,0,1,0,4.95-4.95Z" fill="#68e1fd"></path><path d="M276.52,20.66v8.51c0,4.5,7,4.51,7,0V20.66C283.52,16.16,276.52,16.15,276.52,20.66Z" fill="#68e1fd"></path><path d="M299.5,29.54a3.57,3.57,0,0,0-4.95,0l-4.44,4.28a3.5,3.5,0,0,0,4.95,4.95l4.44-4.28A3.53,3.53,0,0,0,299.5,29.54Z" fill="#68e1fd"></path><polyline points="185.08 132.88 170.85 124.51 196.19 107.97 209.64 113.3" fill="#3129a3"></polyline><path d="M185.08,131.45c-.23-1.07,6.88-21.08,6.88-21.08l29.29-16.65-9,22.8-27.22,16.35Z" fill="#68e1fd"></path><ellipse cx="203.12" cy="116.06" rx="3.46" ry="1.75" transform="translate(11.19 249.82) rotate(-64.62)" fill="#3129a3"></ellipse><path d="M175.62,130l4.21-1.55s3.59-1.45,4.43-.79-3.15,2.71-3.93,3.22,6.16,1.07,6.66,1.71-.06,1.24-.65,1.43,1.5.56.83,1.56a1.94,1.94,0,0,1-2,.62s.94,1.32-.1,1.88-8.8-.71-10.47-2S173.46,130.82,175.62,130Z" fill="#f67770"></path><path d="M174.85,136.52s5.5,3.59,6.34,2.78-.59-3-.59-3-5.47-1.63-6.32-1.41S174.85,136.52,174.85,136.52Z" fill="#f67770"></path><path d="M154.85,86.43S148,100.36,152.7,111.2s18.8,23.63,18.8,23.63l3.95-7L165,105.91" fill="#42210b"></path><polyline points="134.86 74.17 134.86 76.79 68.28 115.32 46.23 102.22 46.23 99.82" fill="#739be0"></polyline><polygon points="134.86 74.17 112.94 61.66 46.23 99.82 68.51 112.68 134.86 74.17" fill="#a4c0ff"></polygon><path d="M102.42,61c1.21-1.19,1.11-1.6,1.26-3.17,1.62-.58,4.12-1.93,6.54-1.76,1.73.12,4,1.31,5.38,1.76.74,2.45,1.22,3.7,3.57,4.94a15,15,0,0,0,1.67.72,3.11,3.11,0,0,1,2,3.4c-.7,4.5-3.32,12.17-13,12.17-10.57,0-12.23-8.91-12.43-13.16a2.26,2.26,0,0,1,1.1-2.05A20.74,20.74,0,0,0,102.42,61Z" fill="#68e1fd"></path><ellipse cx="109.64" cy="57.81" rx="5.96" ry="2.23" fill="#200904"></ellipse><path d="M116,51c-.7,2.68-1.19,5.43-1.61,8.15q-.28.16-.57.3l-.86.27-.38.09a91.62,91.62,0,0,1,1.83-9.31c0-.16-.07-.32-.11-.48-.78-.87-1.92-2.38-.73-3.1.72-.43,1.27,0,1.67.72a31.13,31.13,0,0,1,5.23-10.09c-.63-1.16-.47-3-.33-4.22s.53-2.86,1.71-3.36a.89.89,0,0,1,1,.13c.67.63.59,1.78.59,2.62,0,.59,0,1.18,0,1.76.42-.36.84-.73,1.3-1.07,0,0,0,0,0,0a7.07,7.07,0,0,1,2.62-4c.93-.64,2.67-1.37,3.6-.35,2.19,2.39-3.37,5.1-4.92,5.7a.8.8,0,0,1-.34.06A22,22,0,0,0,124,36.3a7.65,7.65,0,0,1,2.92-.23c1.13.14,2.94.68,3.17,2,.54,3.21-6.89,1.72-8.34,1.32a.79.79,0,0,1-.38-.23A25.61,25.61,0,0,0,119,42.91a7.19,7.19,0,0,1,2.87-.81c1.05-.06,3,0,3.56,1.08.64,1.3-.92,2.08-1.89,2.4a14.7,14.7,0,0,1-5.31.42.8.8,0,0,1-.55-.24c-.39,1-.72,2-1,3,1.71-1.21,4.77-1.71,6,0a.84.84,0,0,1,0,.85c-.37.77-1.57.89-2.3,1.09a34.42,34.42,0,0,1-3.55.74A.87.87,0,0,1,116,51Z" fill="#3129a3"></path><path d="M118.14,38.81c.85-.69,2-2,1.19-3.12s-2.42-.23-3.29.29a6,6,0,0,0-1.55,1.35c.51-1.81,1-3.61,1.66-5.39a3.12,3.12,0,0,0,3.93-2.24c.47-1.92,0-4.34-2.13-5a3.8,3.8,0,0,0-3.39,6.7c-.35,1-.66,2-1,3a8.84,8.84,0,0,0-1.22-2.75c-.82-1.2-2-2.5-3.56-2a.83.83,0,0,0-.52,1.12h0c.27,2.93,2,5.11,4,7.14a.76.76,0,0,0,.23.16c-.29,1.09-.52,2.2-.77,3.29-.42-2.52-1.38-5.44-3.67-4.4-3.21,1.45,1,6.5,2.21,7.9a.79.79,0,0,0,.66.23,97.72,97.72,0,0,0-1.67,15c.29,0,.58,0,.87,0s.55,0,.82,0a96.21,96.21,0,0,1,1.25-12.39l.05,0a12.51,12.51,0,0,0,2.86-1.88c.63-.7,1.46-1.82,1-2.8a1.86,1.86,0,0,0-2.64-.5c-.09.05-.17.12-.25.18.13-.58.23-1.16.37-1.73a.82.82,0,0,0,.19,0A10.35,10.35,0,0,0,118.14,38.81Zm-1-12.6c1.39.24,1.6,1.9,1.31,3s-1.42,1.28-2.45.9a.8.8,0,0,0-.31,0C113.95,28.84,114.82,25.8,117.15,26.21Z" fill="#3129a3"></path><path d="M84.58,32.78a4.85,4.85,0,0,1,5,2.08.68.68,0,0,1,.48.41c.42.21.8.45,1.19.67a6.16,6.16,0,0,1-.48-4.78.84.84,0,0,1,.72-.56.76.76,0,0,1,.58.11l.11.07,0,0A6.9,6.9,0,0,1,94,37a.86.86,0,0,1-.26.51c7.27,5.22,11.08,13.7,13.2,22.43a8.75,8.75,0,0,1-1.87-.61c-2.08-8-5.66-15.62-12.32-20.43-1,2.06-3.27,2.75-5.43,2.92a.7.7,0,0,1-.62-.23.9.9,0,0,1-.45-1.19,5.5,5.5,0,0,1,2.35-2,7,7,0,0,1,2.1-.85q-.91-.53-1.88-1A6.06,6.06,0,0,1,84.08,34,.85.85,0,0,1,84.58,32.78Z" fill="#3129a3"></path><path d="M97.4,34.65a.79.79,0,0,1,.33-.22.85.85,0,0,1,1.14.27c1.24,1.85,1,5.24-.14,7.07a.87.87,0,0,1-1.51-.12.85.85,0,0,1-.32-.38C96,39.08,95.7,36.51,97.4,34.65Z" fill="#3129a3"></path><path d="M102.06,40.06a.79.79,0,0,1,.33-.22.85.85,0,0,1,1.14.27c1.24,1.85,1,5.24-.14,7.07a.87.87,0,0,1-1.51-.12.85.85,0,0,1-.32-.38C100.68,44.5,100.36,41.93,102.06,40.06Z" fill="#3129a3"></path><path d="M90.64,44.32a.79.79,0,0,1-.28-.28.85.85,0,0,1,0-1.17c1.58-1.57,4.95-2,7-1.21a.87.87,0,0,1,.17,1.5.85.85,0,0,1-.31.38C95.26,44.83,92.8,45.64,90.64,44.32Z" fill="#3129a3"></path><path d="M94.26,48a.79.79,0,0,1-.18-.36.85.85,0,0,1,.41-1.1c2-1,5.33-.36,7,1a.87.87,0,0,1-.3,1.48.85.85,0,0,1-.42.27C98.48,49.92,95.89,49.91,94.26,48Z" fill="#3129a3"></path><path d="M98.16,64.07c2.09,1.57,4.49,2.06,7.22,2.44,1.55.22,4.7,1.44,4,3.15-.16.38-.92.68-1.19,1a3.42,3.42,0,0,0-1,1.55c-.35,1.73,1.26,3,2.77,3.35a10,10,0,0,0,4-.38c.81-.14,3.1-.88,3.81-.31a2.9,2.9,0,0,1,.84,1A12.15,12.15,0,0,1,109.8,79c-10.57,0-12.23-8.91-12.43-13.16A2.25,2.25,0,0,1,98.16,64.07Z" fill="#3129a3"></path><polyline points="74.86 58.63 78.54 56.55 97.4 67.51 96.84 91.34 93.41 93.5" fill="#f2f2f2"></polyline><polygon points="93.41 69.69 93.41 93.5 74.86 83.39 74.86 58.63 93.41 69.69" fill="#68e1fd"></polygon><polyline points="69.04 62.32 72.73 60.24 91.58 71.2 91.03 95.03 87.59 97.18" fill="#f2f2f2"></polyline><polygon points="87.59 73.38 87.59 97.18 69.04 87.08 69.04 62.32 87.59 73.38" fill="#68e1fd"></polygon></svg>